<svg t="1667193978920" class="icon" viewBox="0 0 1024 1024" version="1.1" xmlns="http://www.w3.org/2000/svg" p-id="12436" width="200" height="200"><path d="M512 117.333333c217.962667 0 394.666667 176.704 394.666667 394.666667S729.962667 906.666667 512 906.666667 117.333333 729.962667 117.333333 512 294.037333 117.333333 512 117.333333z m0 64C329.386667 181.333333 181.333333 329.386667 181.333333 512c0 182.613333 148.053333 330.666667 330.666667 330.666667 182.613333 0 330.666667-148.053333 330.666667-330.666667 0-182.613333-148.053333-330.666667-330.666667-330.666667z m0 106.666667a32 32 0 0 1 32 32v299.413333l66.048-66.048a32 32 0 0 1 42.837333-2.197333l2.432 2.197333a32 32 0 0 1 0 45.269334l-120.682666 120.682666a32 32 0 0 1-45.269334 0l-120.682666-120.682666a32 32 0 1 1 45.269333-45.269334l66.048 66.048V320a32 32 0 0 1 28.928-31.850667z" fill="#ffffff" p-id="12437"></path></svg>