<svg t="1667193164522" class="icon" viewBox="0 0 1024 1024" version="1.1" xmlns="http://www.w3.org/2000/svg" p-id="5412" width="200" height="200"><path d="M624.5 648.2L524 547.8V434c0-8.3-6.7-15-15-15s-15 6.7-15 15v120c0 4.3 1.8 8.1 4.7 10.9 0.1 0.1 0.2 0.2 0.2 0.3l104.4 104.4c5.9 5.9 15.4 5.9 21.2 0 5.8-6 5.8-15.5 0-21.4z" fill="#ffffff" p-id="5413"></path><path d="M713.4 376.8l23.5-23.5c5.9-5.9 5.9-15.4 0-21.2-5.9-5.9-15.4-5.9-21.2 0L692.8 355c-46.1-43.7-105.4-68.9-168.8-71.7V240h30c8.3 0 15-6.7 15-15s-6.7-15-15-15h-90c-8.3 0-15 6.7-15 15s6.7 15 15 15h30v43.6c-63.5 4.3-122.6 31-168 76.4-49.7 49.7-77 115.7-77 186s27.4 136.3 77 186c49.7 49.7 115.7 77 186 77s136.3-27.4 186-77c49.7-49.7 77-115.7 77-186 0-62.6-21.7-121.9-61.6-169.2zM512 779c-128.5 0-233-104.5-233-233s104.5-233 233-233 233 104.5 233 233-104.5 233-233 233z" fill="#ffffff" p-id="5414"></path></svg>